<svg width="30" height="30" viewBox="0 0 30 30" fill="none" xmlns="http://www.w3.org/2000/svg">
<path d="M21.0628 0H8.93716C4.00919 0 0 4.00919 0 8.93716V21.0628C0 25.9908 4.00919 30 8.93716 30H21.0628C25.9908 30 30 25.9908 30 21.0628V8.93716C29.9999 4.00919 25.9908 0 21.0628 0ZM26.982 21.0628C26.982 24.3319 24.3319 26.982 21.0628 26.982H8.93716C5.66813 26.982 3.018 24.3319 3.018 21.0628V8.93716C3.018 5.66807 5.66813 3.018 8.93716 3.018H21.0628C24.3319 3.018 26.982 5.66807 26.982 8.93716V21.0628Z" fill="url(#paint0_linear)"/>
<path d="M7.75907 0C3.48071 0 0 3.48071 0 7.75901C0 12.0373 3.48071 15.5181 7.75907 15.5181C12.0374 15.5181 15.5181 12.0374 15.5181 7.75901C15.5181 3.48066 12.0374 0 7.75907 0ZM7.75907 12.5001C5.14063 12.5001 3.018 10.3775 3.018 7.75907C3.018 5.14063 5.14068 3.018 7.75907 3.018C10.3775 3.018 12.5001 5.14063 12.5001 7.75907C12.5001 10.3775 10.3775 12.5001 7.75907 12.5001Z" transform="translate(7.24121 7.24121)" fill="url(#paint1_linear)"/>
<path d="M1.85923 3.71846C2.88606 3.71846 3.71846 2.88606 3.71846 1.85923C3.71846 0.832407 2.88606 0 1.85923 0C0.832406 0 0 0.832407 0 1.85923C0 2.88606 0.832406 3.71846 1.85923 3.71846Z" transform="translate(20.915 5.43994)" fill="url(#paint2_linear)"/>
<defs>
<linearGradient id="paint0_linear" x2="1" gradientUnits="userSpaceOnUse" gradientTransform="translate(29.8398 29.9127) scale(29.6797 -29.6797) rotate(90)">
<stop stop-color="#E09B3D"/>
<stop offset="0.3" stop-color="#C74C4D"/>
<stop offset="0.6" stop-color="#C21975"/>
<stop offset="1" stop-color="#7024C4"/>
</linearGradient>
<linearGradient id="paint1_linear" x2="1" gradientUnits="userSpaceOnUse" gradientTransform="translate(22.5989 22.6717) scale(29.6797 -29.6797) rotate(90)">
<stop stop-color="#E09B3D"/>
<stop offset="0.3" stop-color="#C74C4D"/>
<stop offset="0.6" stop-color="#C21975"/>
<stop offset="1" stop-color="#7024C4"/>
</linearGradient>
<linearGradient id="paint2_linear" x2="1" gradientUnits="userSpaceOnUse" gradientTransform="translate(16.6991 24.4727) scale(29.6797 -29.6797) rotate(90)">
<stop stop-color="#E09B3D"/>
<stop offset="0.3" stop-color="#C74C4D"/>
<stop offset="0.6" stop-color="#C21975"/>
<stop offset="1" stop-color="#7024C4"/>
</linearGradient>
</defs>
</svg>
