<?xml version="1.0" encoding="UTF-8"?>
<svg width="27px" height="30px" viewBox="0 0 27 30" version="1.1" xmlns="http://www.w3.org/2000/svg" xmlns:xlink="http://www.w3.org/1999/xlink">
    <!-- Generator: Sketch 51.1 (57501) - http://www.bohemiancoding.com/sketch -->
    <title>package</title>
    <desc>Created with Sketch.</desc>
    <defs></defs>
    <g id="Wesbite-bright-purple" stroke="none" stroke-width="1" fill="none" fill-rule="evenodd" stroke-linecap="round" stroke-linejoin="round">
        <g id="about-copy" transform="translate(-1096.000000, -598.000000)" stroke="#FFFFFF">
            <g id="Group-15" transform="translate(262.000000, 599.000000)">
                <g id="Group-4" transform="translate(780.000000, 0.000000)">
                    <g id="package" transform="translate(55.000000, 0.000000)">
                        <path d="M13.86,0.572727273 L24.0418182,5.66363636 C24.906837,6.09347456 25.4540329,6.97588949 25.4545455,7.94181818 L25.4545455,20.0709091 C25.4540329,21.0368378 24.906837,21.9192527 24.0418182,22.3490909 L13.86,27.44 C13.1429863,27.7987939 12.2988319,27.7987939 11.5818182,27.44 L1.4,22.3490909 C0.535808516,21.9136514 -0.00673442784,21.0258538 1.41301359e-15,20.0581818 L1.41301359e-15,7.94181818 C0.000512559463,6.97588949 0.547708409,6.09347456 1.41272727,5.66363636 L11.5945455,0.572727273 C12.3080779,0.218164355 13.1464676,0.218164355 13.86,0.572727273 Z" id="Shape"></path>
                        <polyline id="Shape" points="0.407272727 6.56727273 12.7272727 12.7272727 25.0472727 6.56727273"></polyline>
                        <path d="M12.7272727,27.6945455 L12.7272727,12.7272727" id="Shape"></path>
                        <path d="M6.36363636,3.18181818 L19.0909091,9.54545455" id="Shape"></path>
                    </g>
                </g>
            </g>
        </g>
    </g>
</svg>