<?xml version="1.0" encoding="UTF-8"?>
<svg width="16px" height="13px" viewBox="0 0 16 13" version="1.1" xmlns="http://www.w3.org/2000/svg" xmlns:xlink="http://www.w3.org/1999/xlink">
    <!-- Generator: Sketch 51.1 (57501) - http://www.bohemiancoding.com/sketch -->
    <title>quote-sign-left</title>
    <desc>Created with Sketch.</desc>
    <defs></defs>
    <g id="Wesbite-bright-purple" stroke="none" stroke-width="1" fill="none" fill-rule="evenodd">
        <g id="homepage-new-2" transform="translate(-239.000000, -3058.000000)" fill="#82879E">
            <g id="Group-15" transform="translate(204.000000, 3017.000000)">
                <g id="Group-14">
                    <path d="M42.518,50.042 C42.518,51.89 41.006,53.402 39.116,53.402 C37.142,53.402 35.756,51.89 35.756,49.664 C35.756,46.598 38.36,42.566 41.216,41.138 L41.3,41.138 C40.124,42.524 39.116,44.624 38.78,46.64 C40.796,46.472 42.518,48.026 42.518,50.042 Z M50.498,50.042 C50.498,51.89 48.986,53.402 47.096,53.402 C45.122,53.402 43.736,51.89 43.736,49.664 C43.736,46.598 46.34,42.566 49.196,41.138 L49.28,41.138 C48.104,42.524 47.096,44.624 46.76,46.64 C48.776,46.472 50.498,48.026 50.498,50.042 Z" id="quote-sign-left"></path>
                </g>
            </g>
        </g>
    </g>
</svg>