<?xml version="1.0" encoding="UTF-8"?>
<svg width="15px" height="13px" viewBox="0 0 15 13" version="1.1" xmlns="http://www.w3.org/2000/svg" xmlns:xlink="http://www.w3.org/1999/xlink">
    <!-- Generator: Sketch 51.1 (57501) - http://www.bohemiancoding.com/sketch -->
    <title>quote-sign-right</title>
    <desc>Created with Sketch.</desc>
    <defs></defs>
    <g id="Wesbite-bright-purple" stroke="none" stroke-width="1" fill="none" fill-rule="evenodd">
        <g id="homepage-new-2" transform="translate(-240.000000, -3377.000000)" fill="#82879E">
            <g id="Group-15" transform="translate(204.000000, 3017.000000)">
                <g id="Group-14">
                    <path d="M42.762,368.904 C42.762,370.752 41.25,372.264 39.36,372.264 C37.386,372.264 36,370.752 36,368.526 C36,365.46 38.604,361.428 41.46,360 L41.544,360 C40.368,361.386 39.36,363.486 39.024,365.502 C41.04,365.334 42.762,366.888 42.762,368.904 Z M50.742,368.904 C50.742,370.752 49.23,372.264 47.34,372.264 C45.366,372.264 43.98,370.752 43.98,368.526 C43.98,365.46 46.584,361.428 49.44,360 L49.524,360 C48.348,361.386 47.34,363.486 47.004,365.502 C49.02,365.334 50.742,366.888 50.742,368.904 Z" id="quote-sign-right" transform="translate(43.371000, 366.132000) scale(-1, -1) translate(-43.371000, -366.132000) "></path>
                </g>
            </g>
        </g>
    </g>
</svg>