<?xml version="1.0" encoding="UTF-8"?>
<svg width="174px" height="26px" viewBox="0 0 174 26" version="1.1" xmlns="http://www.w3.org/2000/svg" xmlns:xlink="http://www.w3.org/1999/xlink">
    <!-- Generator: Sketch 51.1 (57501) - http://www.bohemiancoding.com/sketch -->
    <title>thanku-logo</title>
    <desc>Created with Sketch.</desc>
    <defs></defs>
    <g id="Wesbite-bright-purple" stroke="none" stroke-width="1" fill="none" fill-rule="evenodd">
        <g id="homepage-new-2" transform="translate(-63.000000, -41.000000)" fill="#FFFFFF">
            <g id="thanku-logo" transform="translate(63.000000, 41.000000)">
                <g id="Group" transform="translate(90.000000, 2.000000)">
                    <path d="M7.81465834,23.9873289 C6.20683759,23.9873289 4.8160935,23.5451848 3.64238435,22.6608834 C2.4686752,21.776582 1.56830909,20.5024032 0.941258995,18.8383087 C0.314208902,17.1742142 0.000688558153,15.2086828 0.000688558153,12.9416556 C0.000688558153,10.2887513 0.322247885,7.78058857 0.965376186,5.41709206 L6.15057219,6.67118598 C5.98979011,7.42686173 5.86116638,8.25085751 5.76469713,9.14319803 C5.66822789,10.0355385 5.56372111,11.1650157 5.45117366,12.5316633 L5.37882208,13.2310618 C5.37882208,17.1863009 6.19075938,19.1638908 7.81465834,19.1638908 C9.40640089,19.1638908 10.2022602,17.2264958 10.2022602,13.3516478 C10.2022602,12.6924413 10.0977534,11.6875684 9.88873674,10.336999 C9.67972005,8.98642953 9.4144336,7.70019223 9.09286945,6.47824845 L14.2057139,5.03121701 C15.0578589,7.41079173 15.483925,10.1842409 15.483925,13.3516478 C15.483925,15.5061276 15.1704046,17.3832302 14.5433545,18.9830118 C13.9163045,20.5827935 13.0279968,21.8167774 11.878405,22.6850006 C10.7288131,23.5532238 9.37424447,23.9873289 7.81465834,23.9873289 Z" id="U"></path>
                    <path d="M7.76085846,5.56550555 C6.22398654,5.56550555 4.97810568,4.31962469 4.97810568,2.78275277 C4.97810568,1.24588085 6.22398654,0 7.76085846,0 C9.29773038,0 10.5436112,1.24588085 10.5436112,2.78275277 C10.5436112,4.31962469 9.29773038,5.56550555 7.76085846,5.56550555 Z M7.76085846,4.08137073 C8.47806535,4.08137073 9.05947642,3.49995967 9.05947642,2.78275277 C9.05947642,2.06554588 8.47806535,1.48413481 7.76085846,1.48413481 C7.04365156,1.48413481 6.4622405,2.06554588 6.4622405,2.78275277 C6.4622405,3.49995967 7.04365156,4.08137073 7.76085846,4.08137073 Z" id="Oval" fill-rule="nonzero"></path>
                </g>
                <path d="M0.08,3.976 L4.848,3.208 L4.848,8.168 L10.576,8.168 L10.576,12.136 L4.848,12.136 L4.848,18.056 C4.848,19.0586717 5.02399824,19.8586637 5.376,20.456 C5.72800176,21.0533363 6.437328,21.352 7.504,21.352 C8.01600256,21.352 8.54399728,21.3040005 9.088,21.208 C9.63200272,21.1119995 10.1279978,20.9786675 10.576,20.808 L11.248,24.52 C10.6719971,24.7546678 10.0320035,24.9573325 9.328,25.128 C8.62399648,25.2986675 7.76000512,25.384 6.736,25.384 C5.43466016,25.384 4.3573376,25.2080018 3.504,24.856 C2.6506624,24.5039982 1.96800256,24.0133365 1.456,23.384 C0.94399744,22.7546635 0.58666768,21.9920045 0.384,21.096 C0.18133232,20.1999955 0.08,19.2080054 0.08,18.12 L0.08,3.976 Z M14.448,25 L14.448,0.936 L19.216,0.168 L19.216,8.232 C19.5360016,8.1253328 19.9466642,8.02400048 20.448,7.928 C20.9493358,7.83199952 21.4346643,7.784 21.904,7.784 C23.2693402,7.784 24.4053288,7.9706648 25.312,8.344 C26.2186712,8.7173352 26.9439973,9.24532992 27.488,9.928 C28.0320027,10.6106701 28.4159989,11.4213286 28.64,12.36 C28.8640011,13.2986714 28.976,14.3439942 28.976,15.496 L28.976,25 L24.208,25 L24.208,16.072 C24.208,14.5359923 24.0106686,13.4480032 23.616,12.808 C23.2213314,12.1679968 22.490672,11.848 21.424,11.848 C20.9973312,11.848 20.5973352,11.885333 20.224,11.96 C19.8506648,12.034667 19.5146682,12.1146662 19.216,12.2 L19.216,25 L14.448,25 Z M39.728,21.672 C40.1973357,21.672 40.6453312,21.6613334 41.072,21.64 C41.4986688,21.6186666 41.8399987,21.5866669 42.096,21.544 L42.096,17.928 C41.903999,17.8853331 41.6160019,17.8426669 41.232,17.8 C40.8479981,17.7573331 40.4960016,17.736 40.176,17.736 C39.7279978,17.736 39.3066686,17.7626664 38.912,17.816 C38.5173314,17.8693336 38.1706682,17.9706659 37.872,18.12 C37.5733318,18.2693341 37.3386675,18.4719987 37.168,18.728 C36.9973325,18.9840013 36.912,19.3039981 36.912,19.688 C36.912,20.4346704 37.1626642,20.9519986 37.664,21.24 C38.1653358,21.5280014 38.853329,21.672 39.728,21.672 Z M39.344,7.72 C40.752007,7.72 41.9253286,7.8799984 42.864,8.2 C43.8026714,8.5200016 44.5546638,8.97866368 45.12,9.576 C45.6853362,10.1733363 46.0853322,10.8986624 46.32,11.752 C46.5546678,12.6053376 46.672,13.5546614 46.672,14.6 L46.672,24.52 C45.9893299,24.6693341 45.0400061,24.8453323 43.824,25.048 C42.6079939,25.2506677 41.1360086,25.352 39.408,25.352 C38.3199946,25.352 37.3333378,25.256001 36.448,25.064 C35.5626622,24.871999 34.8000032,24.5573355 34.16,24.12 C33.5199968,23.6826645 33.029335,23.1120035 32.688,22.408 C32.346665,21.7039965 32.176,20.8400051 32.176,19.816 C32.176,18.8346618 32.3733314,18.0026701 32.768,17.32 C33.1626686,16.6373299 33.6906634,16.0933354 34.352,15.688 C35.0133366,15.2826646 35.7706624,14.9893342 36.624,14.808 C37.4773376,14.6266658 38.3626621,14.536 39.28,14.536 C39.8986698,14.536 40.4479976,14.5626664 40.928,14.616 C41.4080024,14.6693336 41.7973318,14.7386662 42.096,14.824 L42.096,14.376 C42.096,13.5653293 41.8506691,12.9146691 41.36,12.424 C40.8693309,11.9333309 40.0160061,11.688 38.8,11.688 C37.9893293,11.688 37.1893373,11.7466661 36.4,11.864 C35.6106627,11.9813339 34.9280029,12.1466656 34.352,12.36 L33.744,8.52 C34.0213347,8.43466624 34.3679979,8.34400048 34.784,8.248 C35.2000021,8.15199952 35.6533309,8.06666704 36.144,7.992 C36.6346691,7.91733296 37.1519973,7.8533336 37.696,7.8 C38.2400027,7.7466664 38.7893306,7.72 39.344,7.72 Z M50.992,8.744 C51.8026707,8.50933216 52.8479936,8.29066768 54.128,8.088 C55.4080064,7.88533232 56.751993,7.784 58.16,7.784 C59.5893405,7.784 60.7786619,7.9706648 61.728,8.344 C62.6773381,8.7173352 63.4293306,9.24532992 63.984,9.928 C64.5386694,10.6106701 64.9333322,11.4213286 65.168,12.36 C65.4026678,13.2986714 65.52,14.3439942 65.52,15.496 L65.52,25 L60.752,25 L60.752,16.072 C60.752,14.5359923 60.5493354,13.4480032 60.144,12.808 C59.7386646,12.1679968 58.9813389,11.848 57.872,11.848 C57.530665,11.848 57.1680019,11.8639998 56.784,11.896 C56.3999981,11.9280002 56.0586682,11.9653331 55.76,12.008 L55.76,25 L50.992,25 L50.992,8.744 Z M74.608,14.248 C75.0773357,13.7359974 75.5626642,13.2026694 76.064,12.648 C76.5653358,12.0933306 77.0506643,11.5440027 77.52,11 C77.9893357,10.4559973 78.4319979,9.93866912 78.848,9.448 C79.2640021,8.95733088 79.6213318,8.53066848 79.92,8.168 L85.584,8.168 C84.4533277,9.46933984 83.3493387,10.7119941 82.272,11.896 C81.1946613,13.0800059 80.0160064,14.301327 78.736,15.56 C79.3760032,16.1360029 80.0373299,16.823996 80.72,17.624 C81.4026701,18.424004 82.0639968,19.2506624 82.704,20.104 C83.3440032,20.9573376 83.930664,21.8106624 84.464,22.664 C84.997336,23.5173376 85.4453315,24.2959965 85.808,25 L80.336,25 C79.994665,24.4453306 79.6053355,23.8320034 79.168,23.16 C78.7306645,22.4879966 78.2666691,21.8160034 77.776,21.144 C77.2853309,20.4719966 76.7680027,19.8266698 76.224,19.208 C75.6799973,18.5893302 75.141336,18.0666688 74.608,17.64 L74.608,25 L69.84,25 L69.84,0.936 L74.608,0.168 L74.608,14.248 Z" id="thank"></path>
                <path d="M109.44,16.584 C109.44,15.3679939 109.637331,14.2213387 110.032,13.144 C110.426669,12.0666613 110.99733,11.128004 111.744,10.328 C112.49067,9.527996 113.397328,8.89333568 114.464,8.424 C115.530672,7.95466432 116.74666,7.72 118.112,7.72 C119.008004,7.72 119.82933,7.7999992 120.576,7.96 C121.32267,8.1200008 122.047996,8.34933184 122.752,8.648 L121.76,12.456 C121.311998,12.2853325 120.821336,12.1360006 120.288,12.008 C119.754664,11.8799994 119.157337,11.816 118.496,11.816 C117.087993,11.816 116.037337,12.253329 115.344,13.128 C114.650663,14.002671 114.304,15.1546595 114.304,16.584 C114.304,18.0986742 114.62933,19.2719958 115.28,20.104 C115.93067,20.9360042 117.066659,21.352 118.688,21.352 C119.264003,21.352 119.882663,21.2986672 120.544,21.192 C121.205337,21.0853328 121.813331,20.9146678 122.368,20.68 L123.04,24.584 C122.485331,24.8186678 121.792004,25.0213325 120.96,25.192 C120.127996,25.3626675 119.210672,25.448 118.208,25.448 C116.671992,25.448 115.349339,25.218669 114.24,24.76 C113.130661,24.301331 112.21867,23.6773373 111.504,22.888 C110.78933,22.0986627 110.266668,21.1653387 109.936,20.088 C109.605332,19.0106613 109.44,17.842673 109.44,16.584 Z M132.672,21.672 C133.141336,21.672 133.589331,21.6613334 134.016,21.64 C134.442669,21.6186666 134.783999,21.5866669 135.04,21.544 L135.04,17.928 C134.847999,17.8853331 134.560002,17.8426669 134.176,17.8 C133.791998,17.7573331 133.440002,17.736 133.12,17.736 C132.671998,17.736 132.250669,17.7626664 131.856,17.816 C131.461331,17.8693336 131.114668,17.9706659 130.816,18.12 C130.517332,18.2693341 130.282668,18.4719987 130.112,18.728 C129.941332,18.9840013 129.856,19.3039981 129.856,19.688 C129.856,20.4346704 130.106664,20.9519986 130.608,21.24 C131.109336,21.5280014 131.797329,21.672 132.672,21.672 Z M132.288,7.72 C133.696007,7.72 134.869329,7.8799984 135.808,8.2 C136.746671,8.5200016 137.498664,8.97866368 138.064,9.576 C138.629336,10.1733363 139.029332,10.8986624 139.264,11.752 C139.498668,12.6053376 139.616,13.5546614 139.616,14.6 L139.616,24.52 C138.93333,24.6693341 137.984006,24.8453323 136.768,25.048 C135.551994,25.2506677 134.080009,25.352 132.352,25.352 C131.263995,25.352 130.277338,25.256001 129.392,25.064 C128.506662,24.871999 127.744003,24.5573355 127.104,24.12 C126.463997,23.6826645 125.973335,23.1120035 125.632,22.408 C125.290665,21.7039965 125.12,20.8400051 125.12,19.816 C125.12,18.8346618 125.317331,18.0026701 125.712,17.32 C126.106669,16.6373299 126.634663,16.0933354 127.296,15.688 C127.957337,15.2826646 128.714662,14.9893342 129.568,14.808 C130.421338,14.6266658 131.306662,14.536 132.224,14.536 C132.84267,14.536 133.391998,14.5626664 133.872,14.616 C134.352002,14.6693336 134.741332,14.7386662 135.04,14.824 L135.04,14.376 C135.04,13.5653293 134.794669,12.9146691 134.304,12.424 C133.813331,11.9333309 132.960006,11.688 131.744,11.688 C130.933329,11.688 130.133337,11.7466661 129.344,11.864 C128.554663,11.9813339 127.872003,12.1466656 127.296,12.36 L126.688,8.52 C126.965335,8.43466624 127.311998,8.34400048 127.728,8.248 C128.144002,8.15199952 128.597331,8.06666704 129.088,7.992 C129.578669,7.91733296 130.095997,7.8533336 130.64,7.8 C131.184003,7.7466664 131.733331,7.72 132.288,7.72 Z M148.768,21.576 C149.642671,21.576 150.261332,21.4906675 150.624,21.32 C150.986668,21.1493325 151.168,20.8186691 151.168,20.328 C151.168,19.9439981 150.933336,19.6080014 150.464,19.32 C149.994664,19.0319986 149.280005,18.7066685 148.32,18.344 C147.57333,18.0666653 146.896003,17.7786682 146.288,17.48 C145.679997,17.1813318 145.162669,16.8240021 144.736,16.408 C144.309331,15.9919979 143.978668,15.4960029 143.744,14.92 C143.509332,14.3439971 143.392,13.6506707 143.392,12.84 C143.392,11.2613254 143.978661,10.0133379 145.152,9.096 C146.325339,8.17866208 147.93599,7.72 149.984,7.72 C151.008005,7.72 151.989329,7.81066576 152.928,7.992 C153.866671,8.17333424 154.613331,8.3706656 155.168,8.584 L154.336,12.296 C153.781331,12.103999 153.17867,11.9333341 152.528,11.784 C151.87733,11.6346659 151.146671,11.56 150.336,11.56 C148.842659,11.56 148.096,11.9759958 148.096,12.808 C148.096,13.000001 148.128,13.1706659 148.192,13.32 C148.256,13.4693341 148.383999,13.6133326 148.576,13.752 C148.768001,13.8906674 149.029332,14.0399992 149.36,14.2 C149.690668,14.3600008 150.111997,14.535999 150.624,14.728 C151.669339,15.1120019 152.53333,15.4906648 153.216,15.864 C153.89867,16.2373352 154.437331,16.6426645 154.832,17.08 C155.226669,17.5173355 155.503999,18.002664 155.664,18.536 C155.824001,19.069336 155.904,19.6879965 155.904,20.392 C155.904,22.0560083 155.280006,23.3146624 154.032,24.168 C152.783994,25.0213376 151.018678,25.448 148.736,25.448 C147.242659,25.448 146.000005,25.3200013 145.008,25.064 C144.015995,24.8079987 143.328002,24.5946675 142.944,24.424 L143.744,20.552 C144.554671,20.8720016 145.386662,21.1226658 146.24,21.304 C147.093338,21.4853342 147.935996,21.576 148.768,21.576 Z M159.456,25 L159.456,0.936 L164.224,0.168 L164.224,8.232 C164.544002,8.1253328 164.954664,8.02400048 165.456,7.928 C165.957336,7.83199952 166.442664,7.784 166.912,7.784 C168.27734,7.784 169.413329,7.9706648 170.32,8.344 C171.226671,8.7173352 171.951997,9.24532992 172.496,9.928 C173.040003,10.6106701 173.423999,11.4213286 173.648,12.36 C173.872001,13.2986714 173.984,14.3439942 173.984,15.496 L173.984,25 L169.216,25 L169.216,16.072 C169.216,14.5359923 169.018669,13.4480032 168.624,12.808 C168.229331,12.1679968 167.498672,11.848 166.432,11.848 C166.005331,11.848 165.605335,11.885333 165.232,11.96 C164.858665,12.034667 164.522668,12.1146662 164.224,12.2 L164.224,25 L159.456,25 Z" id="cash"></path>
            </g>
        </g>
    </g>
</svg>