<svg width="30" height="25" viewBox="0 0 30 25" fill="none" xmlns="http://www.w3.org/2000/svg">
<path d="M29.5229 2.8606C28.8563 3.15185 28.1644 3.38163 27.4544 3.54798C28.2367 2.81541 28.8249 1.89911 29.1568 0.876364C29.2515 0.584387 28.9297 0.331907 28.6621 0.488238C27.6744 1.06556 26.6105 1.49866 25.4998 1.77565C25.4353 1.79172 25.3689 1.79987 25.3021 1.79987C25.0998 1.79987 24.9032 1.72584 24.7485 1.5915C23.5668 0.565215 22.0469 8.13839e-08 20.469 8.13839e-08C19.7862 8.13839e-08 19.0968 0.10487 18.42 0.311726C16.3228 0.952692 14.7047 2.65735 14.197 4.76051C14.0065 5.54937 13.9549 6.33896 14.0436 7.10728C14.0538 7.19557 14.0114 7.25719 13.9853 7.2861C13.9394 7.33677 13.8744 7.36581 13.8069 7.36581C13.7994 7.36581 13.7916 7.36545 13.7839 7.36473C9.19333 6.94446 5.05372 4.76512 2.12763 1.22824C1.97842 1.04783 1.69229 1.06996 1.57336 1.27098C1.00035 2.23967 0.69754 3.34761 0.69754 4.47501C0.69754 6.20281 1.40198 7.83106 2.62559 9.01807C2.11103 8.89785 1.613 8.7085 1.15037 8.4553C0.926551 8.33278 0.651167 8.49026 0.648022 8.74252C0.615986 11.3093 2.14102 13.5932 4.42557 14.6216C4.37956 14.6227 4.33356 14.6232 4.28748 14.6232C3.92535 14.6232 3.55868 14.5888 3.19779 14.5208C2.94574 14.4734 2.73399 14.709 2.81225 14.9498C3.55378 17.2311 5.54707 18.9126 7.93242 19.2944C5.95273 20.6039 3.64733 21.2947 1.24787 21.2947L0.499834 21.2942C0.26936 21.2942 0.0744341 21.4423 0.0157002 21.6622C-0.042156 21.8789 0.0644135 22.1075 0.260949 22.2201C2.96476 23.7707 6.04884 24.5902 9.18112 24.5902C11.9229 24.5902 14.4876 24.054 16.804 22.9966C18.9276 22.0273 20.8041 20.6417 22.3815 18.8782C23.851 17.2355 25.0001 15.3391 25.7967 13.2418C26.5562 11.2427 26.9576 9.10953 26.9576 7.07297V6.97596C26.9575 6.64895 27.1076 6.34126 27.3695 6.13181C28.3631 5.33682 29.2284 4.40099 29.9412 3.35035C30.1294 3.07293 29.8326 2.72524 29.5229 2.8606Z" fill="#76A9EA"/>
</svg>
